<?xml version="1.0" encoding="UTF-8" standalone="no"?>
<!DOCTYPE svg PUBLIC "-//W3C//DTD SVG 1.1//EN" "http://www.w3.org/Graphics/SVG/1.1/DTD/svg11.dtd">
<svg width="100%" height="100%" viewBox="0 0 250 150" version="1.1" xmlns="http://www.w3.org/2000/svg" xmlns:xlink="http://www.w3.org/1999/xlink" xml:space="preserve" xmlns:serif="http://www.serif.com/" style="fill-rule:evenodd;clip-rule:evenodd;stroke-linecap:round;stroke-linejoin:round;stroke-miterlimit:1.5;">
    <g transform="matrix(0.292683,0,0,0.292683,-4.01151,-51.8402)">
        <g>
            <g transform="matrix(0.56255,0,0,0.56255,300.152,184.542)">
                <g transform="matrix(1,0,0,1,16.5,98.6182)">
                    <path d="M418,243C418,243 49,242.468 49,243C49,270.044 70.956,292 98,292L369,292C396.044,292 418,270.044 418,243Z" style="fill:white;stroke:rgb(142,142,147);stroke-width:12.5px;"/>
                </g>
                <g transform="matrix(1,0,0,1,16.5,74)">
                    <path d="M418,243C418,243 49,242.468 49,243C49,270.044 70.956,292 98,292L369,292C396.044,292 418,270.044 418,243Z" style="fill:white;stroke:rgb(142,142,147);stroke-width:12.5px;"/>
                </g>
                <g transform="matrix(1,0,0,1,16.5,49)">
                    <path d="M418,145C418,117.956 396.044,96 369,96L98,96C70.956,96 49,117.956 49,145L49,243C49,270.044 70.956,292 98,292L369,292C396.044,292 418,270.044 418,243L418,145Z" style="fill:white;stroke:rgb(142,142,147);stroke-width:12.5px;"/>
                </g>
                <g transform="matrix(1,0,0,1,-4.5,-22.5)">
                    <circle cx="254.5" cy="265.5" r="49.5" style="fill:rgb(128,168,129);"/>
                </g>
                <g transform="matrix(1,0,0,1,219.542,264.916)">
                    <g transform="matrix(83.333,0,0,83.333,0,0)">
                        <path d="M0.416,-0.32C0.446,-0.32 0.471,-0.324 0.491,-0.332C0.51,-0.339 0.52,-0.355 0.52,-0.38C0.52,-0.405 0.51,-0.421 0.491,-0.429C0.471,-0.436 0.446,-0.44 0.416,-0.44L0.225,-0.44L0.225,-0.32L0.416,-0.32ZM0.416,-0.092C0.458,-0.092 0.488,-0.098 0.507,-0.112C0.525,-0.125 0.534,-0.142 0.534,-0.163C0.534,-0.184 0.525,-0.202 0.507,-0.215C0.488,-0.228 0.458,-0.234 0.416,-0.234L0.225,-0.234L0.225,-0.092L0.416,-0.092ZM0.396,-0.526C0.427,-0.526 0.456,-0.524 0.485,-0.519C0.514,-0.514 0.539,-0.505 0.561,-0.495C0.583,-0.484 0.601,-0.469 0.614,-0.452C0.627,-0.434 0.634,-0.412 0.634,-0.386C0.634,-0.355 0.624,-0.331 0.605,-0.314C0.586,-0.297 0.563,-0.283 0.536,-0.274L0.536,-0.272C0.567,-0.263 0.594,-0.248 0.616,-0.228C0.637,-0.207 0.648,-0.178 0.648,-0.14C0.648,-0.12 0.644,-0.101 0.635,-0.085C0.626,-0.068 0.614,-0.053 0.597,-0.04C0.58,-0.027 0.559,-0.018 0.534,-0.011C0.509,-0.004 0.481,-0 0.45,-0L0.083,-0L0.083,-0.018C0.102,-0.018 0.111,-0.024 0.111,-0.036L0.111,-0.49C0.111,-0.502 0.102,-0.508 0.083,-0.508L0.083,-0.526L0.396,-0.526Z" style="fill:white;fill-rule:nonzero;"/>
                    </g>
                </g>
            </g>
            <g transform="matrix(3.41667,0,0,3.41667,440.789,511.655)">
                <g transform="matrix(1,0,0,1,-95.5,-40)">
                    <path d="M25.686,54.68C27.326,54.68 28.92,54.457 30.467,54.012C32.014,53.566 33.402,52.916 34.633,52.061C35.863,51.205 36.877,50.156 37.674,48.914C38.471,47.672 38.939,46.266 39.08,44.695C39.127,44.063 39.068,43.406 38.904,42.727C38.74,42.047 38.471,41.379 38.096,40.723C37.721,40.066 37.252,39.457 36.689,38.895C36.127,38.332 35.482,37.84 34.756,37.418C35.67,36.785 36.502,36.088 37.252,35.326C38.002,34.564 38.658,33.779 39.221,32.971C39.783,32.162 40.234,31.342 40.574,30.51C40.914,29.678 41.119,28.875 41.189,28.102C41.26,27.211 41.154,26.367 40.873,25.57C40.592,24.773 40.129,24.076 39.484,23.479C38.84,22.881 38.014,22.406 37.006,22.055C35.998,21.703 34.814,21.527 33.455,21.527C33.127,21.527 32.811,21.539 32.506,21.563C32.201,21.586 31.885,21.621 31.557,21.668C31.393,21.457 31.053,21.293 30.537,21.176C30.303,21.129 30.08,21.094 29.869,21.07C29.658,21.047 29.459,21.07 29.271,21.141C29.084,21.211 28.902,21.352 28.727,21.563C28.551,21.773 28.393,22.078 28.252,22.477C27.572,22.734 26.863,23.027 26.125,23.355C25.387,23.684 24.631,24.082 23.857,24.551C23.717,24.809 23.629,25.072 23.594,25.342C23.559,25.611 23.553,25.852 23.576,26.063C23.6,26.32 23.635,26.566 23.682,26.801C23.822,27.27 24.063,27.557 24.402,27.662C24.742,27.768 25.088,27.656 25.439,27.328C25.768,27.023 26.09,26.742 26.406,26.484C26.723,26.227 27.045,25.98 27.373,25.746C27.186,26.426 26.893,27.475 26.494,28.893C26.096,30.311 25.65,31.898 25.158,33.656C24.666,35.414 24.156,37.23 23.629,39.105C23.102,40.98 22.615,42.721 22.17,44.326C21.725,45.932 21.344,47.291 21.027,48.404C20.711,49.518 20.529,50.18 20.482,50.391C20.389,50.742 20.313,51.018 20.254,51.217C20.195,51.416 20.154,51.574 20.131,51.691C20.107,51.809 20.096,51.92 20.096,52.025C20.096,52.131 20.107,52.277 20.131,52.465C20.154,52.793 20.23,53.045 20.359,53.221C20.488,53.396 20.658,53.543 20.869,53.66C20.986,53.73 21.191,53.818 21.484,53.924C21.777,54.029 22.135,54.141 22.557,54.258C22.979,54.375 23.453,54.475 23.98,54.557C24.508,54.639 25.076,54.68 25.686,54.68ZM27.092,37.523C27.162,37.266 27.227,37.02 27.285,36.785C27.344,36.551 27.396,36.316 27.443,36.082C27.748,34.863 28.076,33.656 28.428,32.461C28.779,31.266 29.113,30.129 29.43,29.051C29.746,27.973 30.045,26.982 30.326,26.08C30.607,25.178 30.842,24.422 31.029,23.813C31.943,23.508 32.822,23.355 33.666,23.355C34.932,23.355 35.91,23.748 36.602,24.533C37.293,25.318 37.568,26.52 37.428,28.137C37.357,28.816 37.176,29.555 36.883,30.352C36.59,31.148 36.215,31.928 35.758,32.689C35.301,33.451 34.768,34.166 34.158,34.834C33.549,35.502 32.916,36.047 32.26,36.469C31.979,36.422 31.686,36.381 31.381,36.346C31.076,36.311 30.76,36.293 30.432,36.293C29.822,36.293 29.184,36.422 28.516,36.68C27.848,36.938 27.373,37.219 27.092,37.523ZM25.861,52.746C25.557,52.746 25.275,52.723 25.018,52.676C24.783,52.629 24.549,52.582 24.314,52.535C24.08,52.488 23.893,52.406 23.752,52.289C24.15,50.391 24.525,48.604 24.877,46.928C25.229,45.252 25.557,43.781 25.861,42.516C26.189,41.039 26.518,39.668 26.846,38.402C26.869,38.613 26.939,38.836 27.057,39.07C27.174,39.305 27.338,39.51 27.549,39.686C27.76,39.861 28.018,39.99 28.322,40.072C28.627,40.154 28.99,40.137 29.412,40.02C30.701,39.621 31.885,39.129 32.963,38.543C33.314,38.777 33.648,39.053 33.965,39.369C34.281,39.686 34.563,40.049 34.809,40.459C35.055,40.869 35.242,41.326 35.371,41.83C35.5,42.334 35.541,42.902 35.494,43.535C35.377,44.941 35.008,46.213 34.387,47.35C33.766,48.486 32.998,49.453 32.084,50.25C31.17,51.047 30.168,51.662 29.078,52.096C27.988,52.529 26.916,52.746 25.861,52.746ZM46.498,48.563C47.389,48.563 48.197,48.334 48.924,47.877C49.65,47.42 50.283,46.77 50.822,45.926C51.08,46.746 51.391,47.373 51.754,47.807C52.117,48.24 52.615,48.457 53.248,48.457C53.951,48.457 54.701,48.176 55.498,47.613C56.295,47.051 57.086,46.348 57.871,45.504C58.656,44.66 59.395,43.74 60.086,42.744C60.777,41.748 61.357,40.805 61.826,39.914C61.943,39.703 61.996,39.51 61.984,39.334C61.973,39.158 61.92,39.029 61.826,38.947C61.732,38.865 61.609,38.848 61.457,38.895C61.305,38.941 61.146,39.07 60.982,39.281C60.912,39.375 60.736,39.615 60.455,40.002C60.174,40.389 59.834,40.84 59.436,41.355C59.037,41.871 58.598,42.416 58.117,42.99C57.637,43.564 57.156,44.092 56.676,44.572C56.195,45.053 55.732,45.451 55.287,45.768C54.842,46.084 54.455,46.242 54.127,46.242C53.939,46.242 53.77,46.201 53.617,46.119C53.465,46.037 53.336,45.885 53.23,45.662C53.125,45.439 53.037,45.117 52.967,44.695C52.896,44.273 52.838,43.711 52.791,43.008C52.908,42.844 53.037,42.662 53.178,42.463C53.318,42.264 53.459,42.006 53.6,41.689C53.74,41.373 53.887,40.986 54.039,40.529C54.191,40.072 54.35,39.516 54.514,38.859C54.748,38.063 54.889,37.289 54.936,36.539C54.982,35.789 55.006,35.227 55.006,34.852C55.006,34.641 54.865,34.5 54.584,34.43C54.49,34.406 54.379,34.389 54.25,34.377C54.121,34.365 53.963,34.371 53.775,34.395C53.307,34.418 52.967,34.494 52.756,34.623C52.545,34.752 52.311,35.098 52.053,35.66C51.912,35.941 51.742,36.328 51.543,36.82C51.344,37.313 51.156,37.869 50.98,38.49C50.805,39.111 50.652,39.779 50.523,40.494C50.395,41.209 50.33,41.941 50.33,42.691C50.33,43.09 50.365,43.477 50.436,43.852C49.967,44.578 49.451,45.17 48.889,45.627C48.326,46.084 47.74,46.313 47.131,46.313C46.193,46.313 45.572,46.043 45.268,45.504C44.963,44.965 44.869,44.168 44.986,43.113C45.033,42.645 45.162,42.023 45.373,41.25C45.561,40.57 45.836,39.691 46.199,38.613C46.563,37.535 47.061,36.188 47.693,34.57C47.506,34.5 47.301,34.465 47.078,34.465C46.855,34.465 46.639,34.477 46.428,34.5C46.17,34.547 45.924,34.594 45.689,34.641C45.08,34.828 44.605,35.174 44.266,35.678C43.926,36.182 43.65,36.773 43.439,37.453C43.393,37.57 43.305,37.863 43.176,38.332C43.047,38.801 42.9,39.369 42.736,40.037C42.572,40.705 42.432,41.432 42.314,42.217C42.197,43.002 42.139,43.746 42.139,44.449C42.139,44.848 42.203,45.287 42.332,45.768C42.461,46.248 42.684,46.693 43,47.104C43.316,47.514 43.756,47.859 44.318,48.141C44.881,48.422 45.607,48.563 46.498,48.563ZM69.807,48.809C70.252,48.809 70.75,48.662 71.301,48.369C71.852,48.076 72.426,47.695 73.023,47.227C73.621,46.758 74.219,46.219 74.816,45.609C75.414,45 75.982,44.379 76.521,43.746C77.061,43.113 77.553,42.498 77.998,41.9C78.443,41.303 78.807,40.781 79.088,40.336C79.275,40.055 79.369,39.82 79.369,39.633C79.369,39.445 79.322,39.316 79.229,39.246C79.135,39.176 79.012,39.152 78.859,39.176C78.707,39.199 78.561,39.281 78.42,39.422C78.303,39.539 78.086,39.797 77.77,40.195C77.453,40.594 77.066,41.057 76.609,41.584C76.152,42.111 75.654,42.668 75.115,43.254C74.576,43.84 74.037,44.379 73.498,44.871C72.959,45.363 72.449,45.773 71.969,46.102C71.488,46.43 71.084,46.594 70.756,46.594C70.475,46.594 70.217,46.465 69.982,46.207C69.748,45.949 69.643,45.527 69.666,44.941C69.689,44.543 69.754,44.016 69.859,43.359C69.965,42.703 70.076,42.012 70.193,41.285C70.967,40.113 71.688,38.877 72.355,37.576C73.023,36.275 73.615,34.975 74.131,33.674C74.646,32.373 75.063,31.113 75.379,29.895C75.695,28.676 75.877,27.551 75.924,26.52C75.971,25.676 75.971,25.008 75.924,24.516C75.877,24.023 75.789,23.654 75.66,23.408C75.531,23.162 75.373,23.01 75.186,22.951C74.998,22.893 74.787,22.863 74.553,22.863C74.365,22.863 74.166,22.898 73.955,22.969C73.768,23.016 73.568,23.086 73.357,23.18C73.146,23.273 72.924,23.414 72.689,23.602C72.314,24.844 71.975,26.027 71.67,27.152C71.365,28.277 71.096,29.273 70.861,30.141C70.604,31.148 70.357,32.086 70.123,32.953C69.982,33.539 69.842,34.16 69.701,34.816C69.561,35.473 69.408,36.141 69.244,36.82C69.174,36.492 69.063,36.141 68.91,35.766C68.758,35.391 68.564,35.045 68.33,34.729C68.096,34.412 67.814,34.154 67.486,33.955C67.158,33.756 66.795,33.656 66.396,33.656C65.482,33.656 64.574,33.92 63.672,34.447C62.77,34.975 61.961,35.689 61.246,36.592C60.531,37.494 59.939,38.555 59.471,39.773C59.002,40.992 58.732,42.281 58.662,43.641C58.615,44.508 58.686,45.246 58.873,45.855C59.061,46.465 59.301,46.957 59.594,47.332C59.887,47.707 60.221,47.977 60.596,48.141C60.971,48.305 61.322,48.387 61.65,48.387C62.564,48.387 63.52,48.064 64.516,47.42C65.512,46.775 66.502,45.902 67.486,44.801C67.439,45.199 67.404,45.48 67.381,45.645C67.357,46.02 67.41,46.395 67.539,46.77C67.668,47.145 67.85,47.484 68.084,47.789C68.318,48.094 68.582,48.34 68.875,48.527C69.168,48.715 69.479,48.809 69.807,48.809ZM62.916,46.102C62.354,46.102 61.908,45.855 61.58,45.363C61.252,44.871 61.111,44.063 61.158,42.938C61.205,42.234 61.393,41.438 61.721,40.547C62.049,39.656 62.459,38.818 62.951,38.033C63.443,37.248 63.971,36.58 64.533,36.029C65.096,35.479 65.646,35.203 66.186,35.203C66.561,35.203 66.854,35.35 67.064,35.643C67.275,35.936 67.434,36.275 67.539,36.662C67.645,37.049 67.709,37.424 67.732,37.787C67.756,38.15 67.768,38.402 67.768,38.543C67.768,38.824 67.814,39.029 67.908,39.158C68.002,39.287 68.178,39.293 68.436,39.176C68.482,39.152 68.523,39.129 68.559,39.105L68.616,39.07L68.682,39.035C68.564,39.504 68.465,39.961 68.383,40.406C68.301,40.852 68.213,41.297 68.119,41.742C67.861,42.07 67.527,42.48 67.117,42.973C66.707,43.465 66.262,43.945 65.781,44.414C65.301,44.883 64.809,45.281 64.305,45.609C63.801,45.938 63.338,46.102 62.916,46.102ZM80.354,65.613C80.869,65.613 81.338,65.379 81.76,64.91C82.182,64.441 82.568,63.838 82.92,63.1C83.271,62.361 83.594,61.529 83.887,60.604C84.18,59.678 84.438,58.746 84.66,57.809C84.883,56.871 85.082,55.98 85.258,55.137C85.434,54.293 85.58,53.59 85.697,53.027C85.814,52.488 85.955,51.891 86.119,51.234C86.283,50.578 86.482,49.723 86.717,48.668C87.256,48.34 87.906,47.912 88.668,47.385C89.43,46.857 90.215,46.248 91.023,45.557C91.832,44.865 92.623,44.115 93.396,43.307C94.17,42.498 94.826,41.66 95.365,40.793C95.553,40.488 95.629,40.248 95.594,40.072C95.559,39.896 95.453,39.791 95.277,39.756C95.102,39.721 94.896,39.762 94.662,39.879C94.428,39.996 94.217,40.195 94.029,40.477C93.795,40.805 93.432,41.221 92.939,41.725C92.447,42.229 91.885,42.762 91.252,43.324C90.619,43.887 89.951,44.438 89.248,44.977C88.545,45.516 87.865,45.973 87.209,46.348C87.42,45.41 87.637,44.449 87.859,43.465C88.082,42.48 88.293,41.578 88.492,40.758C88.691,39.938 88.855,39.229 88.984,38.631C89.113,38.033 89.201,37.652 89.248,37.488C89.365,37.043 89.459,36.703 89.529,36.469C89.6,36.234 89.67,36.041 89.74,35.889C89.811,35.736 89.881,35.59 89.951,35.449C90.021,35.309 90.115,35.109 90.232,34.852C90.232,34.758 90.121,34.652 89.898,34.535C89.676,34.418 89.4,34.359 89.072,34.359C88.486,34.359 88.047,34.506 87.754,34.799C87.461,35.092 87.197,35.637 86.963,36.434C86.916,36.551 86.881,36.686 86.857,36.838C86.834,36.99 86.799,37.137 86.752,37.277C86.682,36.902 86.576,36.498 86.436,36.064C86.295,35.631 86.096,35.221 85.838,34.834C85.58,34.447 85.264,34.125 84.889,33.867C84.514,33.609 84.068,33.48 83.553,33.48C82.451,33.48 81.455,33.82 80.564,34.5C79.674,35.18 78.924,36.012 78.314,36.996C77.705,37.98 77.236,39.035 76.908,40.16C76.58,41.285 76.416,42.281 76.416,43.148C76.416,44.906 76.727,46.236 77.348,47.139C77.969,48.041 78.783,48.492 79.791,48.492C80.893,48.492 81.871,48.211 82.727,47.648C83.582,47.086 84.314,46.395 84.924,45.574C84.854,45.902 84.766,46.271 84.66,46.682C84.555,47.092 84.443,47.531 84.326,48C83.881,48.352 83.412,48.738 82.92,49.16C82.428,49.582 81.912,50.027 81.373,50.496C80.271,51.434 79.369,52.219 78.666,52.852C77.963,53.484 77.406,54.082 76.996,54.645C76.586,55.207 76.299,55.799 76.135,56.42C75.971,57.041 75.889,57.82 75.889,58.758C75.889,59.438 75.977,60.176 76.152,60.973C76.328,61.77 76.604,62.514 76.979,63.205C77.354,63.896 77.816,64.471 78.367,64.928C78.918,65.385 79.58,65.613 80.354,65.613ZM81.268,46.102C80.377,46.102 79.791,45.803 79.51,45.205C79.229,44.607 79.088,43.816 79.088,42.832C79.088,42.035 79.205,41.197 79.439,40.318C79.674,39.439 79.996,38.631 80.406,37.893C80.816,37.154 81.285,36.551 81.813,36.082C82.34,35.613 82.896,35.379 83.482,35.379C83.834,35.379 84.15,35.566 84.432,35.941C84.713,36.316 84.912,36.914 85.029,37.734C85.053,37.898 85.07,38.086 85.082,38.297C85.094,38.508 85.123,38.719 85.17,38.93C85.217,39.141 85.281,39.328 85.363,39.492C85.445,39.656 85.557,39.75 85.697,39.773C85.861,39.797 85.949,39.938 85.961,40.195C85.973,40.453 85.943,40.746 85.873,41.074C85.803,41.402 85.703,41.742 85.574,42.094C85.445,42.445 85.334,42.727 85.24,42.938C85.123,43.148 84.947,43.43 84.713,43.781C84.479,44.133 84.186,44.479 83.834,44.818C83.482,45.158 83.09,45.457 82.656,45.715C82.223,45.973 81.76,46.102 81.268,46.102ZM79.65,62.414C79.463,62.414 79.293,62.361 79.141,62.256C78.988,62.15 78.859,61.957 78.754,61.676C78.648,61.395 78.566,61.008 78.508,60.516C78.449,60.023 78.42,59.391 78.42,58.617C78.42,57.844 78.531,57.164 78.754,56.578C78.977,55.992 79.275,55.447 79.65,54.943C80.025,54.439 80.453,53.959 80.934,53.502C81.414,53.045 81.912,52.57 82.428,52.078C82.639,51.844 82.844,51.639 83.043,51.463C83.242,51.287 83.436,51.117 83.623,50.953C83.412,51.75 83.213,52.541 83.025,53.326C82.838,54.111 82.656,54.844 82.48,55.523C82.305,56.203 82.152,56.807 82.023,57.334C81.895,57.861 81.795,58.266 81.725,58.547C81.396,59.742 81.086,60.686 80.793,61.377C80.5,62.068 80.119,62.414 79.65,62.414ZM97.58,48.844C98.564,48.844 99.578,48.609 100.621,48.141C101.664,47.672 102.684,47.057 103.68,46.295C104.676,45.533 105.619,44.666 106.51,43.693C107.4,42.721 108.197,41.719 108.9,40.688C109.064,40.43 109.146,40.201 109.146,40.002C109.146,39.803 109.094,39.662 108.988,39.58C108.883,39.498 108.742,39.475 108.566,39.51C108.391,39.545 108.221,39.656 108.057,39.844C107.588,40.406 106.996,41.074 106.281,41.848C105.566,42.621 104.793,43.365 103.961,44.08C103.129,44.795 102.279,45.404 101.412,45.908C100.545,46.412 99.713,46.664 98.916,46.664C98.541,46.664 98.172,46.611 97.809,46.506C97.445,46.4 97.123,46.225 96.842,45.979C96.561,45.732 96.326,45.41 96.139,45.012C95.951,44.613 95.846,44.121 95.822,43.535C96.174,43.277 96.584,42.99 97.053,42.674C97.521,42.357 98.014,42.023 98.529,41.672C98.998,41.344 99.496,40.98 100.023,40.582C100.551,40.184 101.049,39.738 101.518,39.246C101.986,38.754 102.391,38.203 102.73,37.594C103.07,36.984 103.275,36.316 103.346,35.59C103.393,34.934 103.217,34.383 102.818,33.938C102.42,33.492 101.775,33.27 100.885,33.27C99.947,33.27 99.016,33.563 98.09,34.148C97.164,34.734 96.332,35.473 95.594,36.363C94.855,37.254 94.234,38.232 93.73,39.299C93.227,40.365 92.928,41.379 92.834,42.34C92.717,43.512 92.805,44.508 93.098,45.328C93.391,46.148 93.783,46.816 94.275,47.332C94.768,47.848 95.313,48.229 95.91,48.475C96.508,48.721 97.064,48.844 97.58,48.844ZM95.963,41.461C96.127,40.477 96.373,39.604 96.701,38.842C97.029,38.08 97.381,37.436 97.756,36.908C98.131,36.381 98.512,35.977 98.898,35.695C99.285,35.414 99.619,35.273 99.9,35.273C100.158,35.273 100.357,35.373 100.498,35.572C100.639,35.771 100.686,36.094 100.639,36.539C100.592,36.961 100.369,37.465 99.971,38.051C99.572,38.637 98.869,39.316 97.861,40.09C97.533,40.348 97.205,40.588 96.877,40.811C96.549,41.033 96.244,41.25 95.963,41.461ZM111.326,48.809C111.865,48.809 112.533,48.516 113.33,47.93C114.127,47.344 114.947,46.6 115.791,45.697C116.635,44.795 117.438,43.828 118.199,42.797C118.961,41.766 119.576,40.805 120.045,39.914C120.186,39.633 120.25,39.41 120.238,39.246C120.227,39.082 120.174,38.965 120.08,38.895C119.986,38.824 119.863,38.807 119.711,38.842C119.559,38.877 119.436,38.965 119.342,39.105C119.201,39.293 118.955,39.615 118.604,40.072C118.252,40.529 117.842,41.039 117.373,41.602C116.904,42.164 116.395,42.738 115.844,43.324C115.293,43.91 114.748,44.449 114.209,44.941C113.67,45.434 113.148,45.826 112.645,46.119C112.141,46.412 111.713,46.535 111.361,46.488C110.916,46.465 110.541,46.324 110.236,46.066C109.979,45.832 109.762,45.451 109.586,44.924C109.41,44.396 109.393,43.629 109.533,42.621C110.143,41.215 110.693,39.891 111.186,38.648C111.678,37.406 112.1,36.305 112.451,35.344C112.85,34.242 113.201,33.223 113.506,32.285C113.646,31.887 113.758,31.506 113.84,31.143C113.922,30.779 114.01,30.41 114.104,30.035C114.291,30.035 114.473,30.029 114.648,30.018C114.824,30.006 114.982,30 115.123,30C115.873,30 116.529,30.023 117.092,30.07C117.654,30.117 118.141,30.164 118.551,30.211C118.961,30.258 119.313,30.316 119.605,30.387C119.898,30.457 120.162,30.504 120.396,30.527C120.631,30.574 120.842,30.527 121.029,30.387C121.217,30.246 121.352,30.076 121.434,29.877C121.516,29.678 121.551,29.484 121.539,29.297C121.527,29.109 121.439,28.992 121.275,28.945C121.111,28.898 120.865,28.811 120.537,28.682C120.209,28.553 119.775,28.424 119.236,28.295C118.697,28.166 118.047,28.049 117.285,27.943C116.523,27.838 115.65,27.785 114.666,27.785C114.9,26.59 115.029,25.605 115.053,24.832C115.076,24.059 115.029,23.578 114.912,23.391C114.795,23.25 114.607,23.162 114.35,23.127C114.092,23.092 113.822,23.092 113.541,23.127C113.26,23.162 112.996,23.221 112.75,23.303C112.504,23.385 112.346,23.484 112.275,23.602C112.041,23.93 111.777,24.51 111.484,25.342C111.191,26.174 110.893,27.152 110.588,28.277C110.189,28.348 109.785,28.406 109.375,28.453C108.965,28.5 108.537,28.535 108.092,28.559C107.482,28.582 106.92,28.576 106.404,28.541C105.889,28.506 105.408,28.465 104.963,28.418C104.822,28.418 104.664,28.482 104.488,28.611C104.313,28.74 104.166,28.893 104.049,29.068C103.932,29.244 103.861,29.42 103.838,29.596C103.814,29.771 103.896,29.906 104.084,30C104.412,30.164 104.91,30.334 105.578,30.51C106.246,30.686 106.955,30.773 107.705,30.773C108.033,30.773 108.396,30.75 108.795,30.703C109.193,30.656 109.592,30.609 109.99,30.563C109.662,31.922 109.352,33.334 109.059,34.799C108.766,36.264 108.502,37.635 108.268,38.912C108.033,40.189 107.846,41.314 107.705,42.287C107.564,43.26 107.482,43.934 107.459,44.309C107.412,44.754 107.447,45.24 107.564,45.768C107.682,46.295 107.887,46.781 108.18,47.227C108.473,47.672 108.877,48.047 109.393,48.352C109.908,48.656 110.553,48.809 111.326,48.809ZM125.494,54.398C126.314,54.141 127.094,53.947 127.832,53.818C128.57,53.689 129.232,53.59 129.818,53.52C130.498,53.426 131.131,53.379 131.717,53.379C132.303,53.379 132.947,53.414 133.65,53.484C134.26,53.531 134.963,53.607 135.76,53.713C136.557,53.818 137.412,53.965 138.326,54.152C138.936,53.613 139.416,53.139 139.768,52.729C140.119,52.318 140.377,51.973 140.541,51.691C140.729,51.363 140.846,51.082 140.893,50.848C140.564,50.637 140.066,50.467 139.398,50.338C138.73,50.209 138.057,50.121 137.377,50.074C136.58,50.004 135.725,49.969 134.811,49.969C133.076,49.969 131.576,50.115 130.311,50.408C129.045,50.701 128.107,50.965 127.498,51.199C127.732,50.613 128.055,49.928 128.465,49.143C128.875,48.357 129.385,47.555 129.994,46.734C130.533,45.984 131.148,45.17 131.84,44.291C132.531,43.412 133.246,42.521 133.984,41.619C134.723,40.717 135.461,39.814 136.199,38.912C136.938,38.01 137.641,37.154 138.309,36.346C138.977,35.537 139.58,34.799 140.119,34.131C140.658,33.463 141.104,32.906 141.455,32.461C142.51,31.055 143.377,29.695 144.057,28.383C144.736,27.07 145.1,26.004 145.146,25.184C145.146,24.855 145.135,24.527 145.111,24.199C145.088,23.918 145.047,23.602 144.988,23.25C144.93,22.898 144.842,22.559 144.725,22.23C144.068,22.113 143.359,22.037 142.598,22.002C141.836,21.967 141.115,21.926 140.436,21.879C139.662,21.855 138.865,21.832 138.045,21.809C137.459,21.809 136.814,21.832 136.111,21.879C135.502,21.926 134.811,21.984 134.037,22.055C133.264,22.125 132.432,22.219 131.541,22.336C131.354,22.43 131.195,22.582 131.066,22.793C130.938,23.004 130.814,23.215 130.697,23.426C130.58,23.684 130.475,23.965 130.381,24.27C130.287,24.621 130.229,24.926 130.205,25.184C130.158,25.441 130.152,25.676 130.188,25.887C130.223,26.098 130.299,26.25 130.416,26.344C131.283,25.922 132.238,25.594 133.281,25.359C134.324,25.125 135.367,24.949 136.41,24.832C137.453,24.715 138.443,24.639 139.381,24.604C140.318,24.568 141.127,24.551 141.807,24.551C141.854,24.809 141.848,25.072 141.789,25.342C141.73,25.611 141.654,25.875 141.561,26.133C141.467,26.414 141.35,26.707 141.209,27.012C140.881,27.645 140.447,28.371 139.908,29.191C139.369,30.012 138.76,30.879 138.08,31.793C137.4,32.707 136.68,33.65 135.918,34.623C135.156,35.596 134.406,36.533 133.668,37.436C132.93,38.338 132.232,39.193 131.576,40.002C130.92,40.811 130.346,41.52 129.854,42.129C129.291,42.855 128.705,43.688 128.096,44.625C127.557,45.422 126.965,46.377 126.32,47.49C125.676,48.604 125.049,49.852 124.439,51.234C124.486,51.727 124.557,52.184 124.65,52.605C124.721,52.957 124.82,53.309 124.949,53.66C125.078,54.012 125.26,54.258 125.494,54.398ZM148.311,48.844C149.295,48.844 150.309,48.609 151.352,48.141C152.395,47.672 153.414,47.057 154.41,46.295C155.406,45.533 156.35,44.666 157.24,43.693C158.131,42.721 158.928,41.719 159.631,40.688C159.795,40.43 159.877,40.201 159.877,40.002C159.877,39.803 159.824,39.662 159.719,39.58C159.613,39.498 159.473,39.475 159.297,39.51C159.121,39.545 158.951,39.656 158.787,39.844C158.318,40.406 157.727,41.074 157.012,41.848C156.297,42.621 155.523,43.365 154.691,44.08C153.859,44.795 153.01,45.404 152.143,45.908C151.275,46.412 150.443,46.664 149.646,46.664C149.271,46.664 148.902,46.611 148.539,46.506C148.176,46.4 147.854,46.225 147.572,45.979C147.291,45.732 147.057,45.41 146.869,45.012C146.682,44.613 146.576,44.121 146.553,43.535C146.904,43.277 147.314,42.99 147.783,42.674C148.252,42.357 148.744,42.023 149.26,41.672C149.729,41.344 150.227,40.98 150.754,40.582C151.281,40.184 151.779,39.738 152.248,39.246C152.717,38.754 153.121,38.203 153.461,37.594C153.801,36.984 154.006,36.316 154.076,35.59C154.123,34.934 153.947,34.383 153.549,33.938C153.15,33.492 152.506,33.27 151.615,33.27C150.678,33.27 149.746,33.563 148.82,34.148C147.895,34.734 147.063,35.473 146.324,36.363C145.586,37.254 144.965,38.232 144.461,39.299C143.957,40.365 143.658,41.379 143.564,42.34C143.447,43.512 143.535,44.508 143.828,45.328C144.121,46.148 144.514,46.816 145.006,47.332C145.498,47.848 146.043,48.229 146.641,48.475C147.238,48.721 147.795,48.844 148.311,48.844ZM146.693,41.461C146.857,40.477 147.104,39.604 147.432,38.842C147.76,38.08 148.111,37.436 148.486,36.908C148.861,36.381 149.242,35.977 149.629,35.695C150.016,35.414 150.35,35.273 150.631,35.273C150.889,35.273 151.088,35.373 151.229,35.572C151.369,35.771 151.416,36.094 151.369,36.539C151.322,36.961 151.1,37.465 150.701,38.051C150.303,38.637 149.6,39.316 148.592,40.09C148.264,40.348 147.936,40.588 147.607,40.811C147.279,41.033 146.975,41.25 146.693,41.461ZM167.541,48.879C168.057,48.879 168.602,48.721 169.176,48.404C169.75,48.088 170.33,47.678 170.916,47.174C171.502,46.67 172.064,46.107 172.604,45.486C173.143,44.865 173.646,44.25 174.115,43.641C174.584,43.031 174.988,42.457 175.328,41.918C175.668,41.379 175.92,40.945 176.084,40.617C176.271,40.242 176.365,39.932 176.365,39.686C176.365,39.439 176.313,39.281 176.207,39.211C176.102,39.141 175.955,39.152 175.768,39.246C175.58,39.34 175.381,39.539 175.17,39.844C174.865,40.313 174.42,40.928 173.834,41.689C173.248,42.451 172.627,43.195 171.971,43.922C171.314,44.648 170.664,45.27 170.02,45.785C169.375,46.301 168.842,46.559 168.42,46.559C167.998,46.559 167.77,46.371 167.734,45.996C167.699,45.621 167.752,45.176 167.893,44.66C168.15,43.863 168.367,43.131 168.543,42.463C168.719,41.795 168.865,41.215 168.982,40.723L169.369,39.176C169.58,38.426 169.668,37.734 169.633,37.102C169.598,36.469 169.48,35.924 169.281,35.467C169.082,35.01 168.807,34.652 168.455,34.395C168.104,34.137 167.705,34.008 167.26,34.008C166.721,34.008 166.193,34.119 165.678,34.342C165.162,34.564 164.676,34.852 164.219,35.203C163.762,35.555 163.34,35.947 162.953,36.381C162.566,36.814 162.221,37.242 161.916,37.664C162.057,37.266 162.174,36.879 162.268,36.504C162.361,36.176 162.455,35.865 162.549,35.572C162.643,35.279 162.725,35.051 162.795,34.887C162.654,34.77 162.496,34.682 162.32,34.623C162.145,34.564 161.975,34.523 161.811,34.5C161.623,34.477 161.436,34.465 161.248,34.465C161.037,34.488 160.838,34.535 160.65,34.605C160.463,34.652 160.281,34.717 160.105,34.799C159.93,34.881 159.76,34.992 159.596,35.133C159.361,36.023 159.156,36.844 158.98,37.594C158.805,38.344 158.658,39 158.541,39.563C158.4,40.219 158.271,40.816 158.154,41.355C157.99,42.035 157.814,42.75 157.627,43.5L157.487,44.055C157.349,44.602 157.214,45.126 157.082,45.627C156.906,46.295 156.754,46.875 156.625,47.367C156.496,47.859 156.42,48.176 156.396,48.316C156.35,48.527 156.473,48.633 156.766,48.633C157.059,48.633 157.404,48.563 157.803,48.422C158.201,48.281 158.576,48.1 158.928,47.877C159.279,47.654 159.49,47.426 159.561,47.191C159.631,46.863 159.713,46.518 159.807,46.154C159.9,45.791 160,45.369 160.105,44.889C160.211,44.408 160.334,43.869 160.475,43.271C160.615,42.674 160.791,41.977 161.002,41.18C161.4,40.594 161.805,40.025 162.215,39.475C162.625,38.924 163.035,38.438 163.445,38.016C163.855,37.594 164.26,37.26 164.658,37.014C165.057,36.768 165.443,36.645 165.818,36.645C166.123,36.645 166.322,36.814 166.416,37.154C166.51,37.494 166.533,37.928 166.486,38.455C166.439,38.982 166.34,39.568 166.188,40.213C166.035,40.857 165.871,41.502 165.695,42.146C165.52,42.791 165.35,43.389 165.186,43.939C165.021,44.49 164.904,44.93 164.834,45.258C164.717,45.75 164.693,46.213 164.764,46.646C164.834,47.08 164.986,47.461 165.221,47.789C165.455,48.117 165.766,48.381 166.152,48.58C166.539,48.779 167.002,48.879 167.541,48.879Z" style="fill:rgb(142,142,147);fill-rule:nonzero;"/>
                </g>
            </g>
        </g>
    </g>
</svg>
